<svg width="40" height="40" viewBox="0 0 40 40" fill="none" xmlns="http://www.w3.org/2000/svg">
<path d="M30 13.0687H10C7.79086 13.0687 6 14.8595 6 17.0687V29.3267C6 31.5359 7.79086 33.3267 10 33.3267H30C32.2091 33.3267 34 31.5359 34 29.3267V17.0687C34 14.8595 32.2091 13.0687 30 13.0687Z" stroke="#828282" stroke-width="2"/>
<path d="M23 13.0687H10C7.79086 13.0687 6 14.8595 6 17.0687V29.3267C6 31.5359 7.79086 33.3267 10 33.3267H23C25.2091 33.3267 27 31.5359 27 29.3267V17.0687C27 14.8595 25.2091 13.0687 23 13.0687Z" stroke="#828282" stroke-width="2"/>
<path fill-rule="evenodd" clip-rule="evenodd" d="M27 13.0687V33.3267H31C32.6569 33.3267 34 31.9836 34 30.3267V16.0687C34 14.4118 32.6569 13.0687 31 13.0687H27ZM30.5 22.7461C28.5742 22.7461 27 21.2227 27 19.3267C27 17.4308 28.5742 15.9074 30.5 15.9074C32.4258 15.9074 34 17.4308 34 19.3267C34 21.2227 32.4258 22.7461 30.5 22.7461ZM30.5 28.5525C29.1265 28.5525 28 27.4624 28 26.1009C28 24.7395 29.1265 23.6493 30.5 23.6493C31.8735 23.6493 33 24.7395 33 26.1009C33 27.4624 31.8735 28.5525 30.5 28.5525Z" fill="#828282" stroke="#828282" stroke-width="2"/>
<path fill-rule="evenodd" clip-rule="evenodd" d="M22.4295 8.48218C22.2032 8.33447 21.9005 8.39328 21.746 8.61497L19.5116 11.8207C19.5076 11.8265 19.5076 11.8265 19.5038 11.8323C19.3648 12.0452 19.4247 12.3305 19.6376 12.4695L19.6544 12.4804C19.8806 12.6281 20.1833 12.5693 20.3379 12.3476L22.5722 9.14186C22.5762 9.13609 22.5762 9.13609 22.5801 9.13025C22.719 8.91734 22.6591 8.63207 22.4462 8.49309L22.4295 8.48218Z" fill="#D8D8D8" stroke="#828282"/>
<path fill-rule="evenodd" clip-rule="evenodd" d="M15.0933 6.28084C15.0874 6.28512 15.0874 6.28512 15.0817 6.28952C14.8823 6.44485 14.8465 6.73247 15.0018 6.93195L19.2155 12.3434C19.3814 12.5564 19.6865 12.5993 19.9046 12.4402L19.9204 12.4287C19.9262 12.4244 19.9262 12.4244 19.9319 12.42C20.1314 12.2647 20.1672 11.9771 20.0118 11.7776L15.7981 6.36617C15.6322 6.15313 15.3271 6.11028 15.109 6.26937L15.0933 6.28084Z" fill="#D8D8D8" stroke="#828282"/>
</svg>
