<svg width="50" height="50" viewBox="0 0 50 50" fill="none" xmlns="http://www.w3.org/2000/svg">
<path d="M47.5806 11.2903H29.0323V4.03226C29.0323 1.80887 27.2234 0 25 0H4.03226C1.80887 0 0 1.80887 0 4.03226V45.9677C0 48.1911 1.80887 50 4.03226 50H25C27.2234 50 29.0323 48.1911 29.0323 45.9677V33.871H27.4194V41.9355H1.6129V8.06452H27.4194V11.2903H20.1613C18.8274 11.2903 17.7419 12.3758 17.7419 13.7097V25.4726L10.9565 32.2581H47.5806C48.9145 32.2581 50 31.1726 50 29.8387V13.7097C50 12.3758 48.9145 11.2903 47.5806 11.2903ZM27.4194 43.5484V45.9677C27.4194 47.3016 26.3339 48.3871 25 48.3871H4.03226C2.69839 48.3871 1.6129 47.3016 1.6129 45.9677V43.5484H27.4194ZM1.6129 6.45161V4.03226C1.6129 2.69839 2.69839 1.6129 4.03226 1.6129H25C26.3339 1.6129 27.4194 2.69839 27.4194 4.03226V6.45161H1.6129ZM48.3871 29.8387C48.3871 30.2839 48.0258 30.6452 47.5806 30.6452H14.85L19.3548 26.1403V13.7097C19.3548 13.2645 19.7161 12.9032 20.1613 12.9032H47.5806C48.0258 12.9032 48.3871 13.2645 48.3871 13.7097V29.8387Z" fill="white"/>
<path d="M41.9355 20.9677C41.0459 20.9677 40.3226 20.2444 40.3226 19.3548C40.3226 18.4653 41.0459 17.7419 41.9355 17.7419C42.825 17.7419 43.5484 18.4653 43.5484 19.3548H45.1613C45.1613 17.5758 43.7145 16.129 41.9355 16.129C40.1564 16.129 38.7097 17.5758 38.7097 19.3548C38.7097 21.1339 40.1564 22.5806 41.9355 22.5806C42.825 22.5806 43.5484 23.304 43.5484 24.1935C43.5484 25.0831 42.825 25.8064 41.9355 25.8064C41.0459 25.8064 40.3226 25.0831 40.3226 24.1935H38.7097C38.7097 25.9726 40.1564 27.4194 41.9355 27.4194C43.7145 27.4194 45.1613 25.9726 45.1613 24.1935C45.1613 22.4145 43.7145 20.9677 41.9355 20.9677Z" fill="white"/>
<path d="M25.8064 20.9677C24.9169 20.9677 24.1935 20.2444 24.1935 19.3548C24.1935 18.4653 24.9169 17.7419 25.8064 17.7419C26.6959 17.7419 27.4193 18.4653 27.4193 19.3548H29.0322C29.0322 17.5758 27.5855 16.129 25.8064 16.129C24.0274 16.129 22.5806 17.5758 22.5806 19.3548C22.5806 21.1339 24.0274 22.5806 25.8064 22.5806C26.6959 22.5806 27.4193 23.304 27.4193 24.1935C27.4193 25.0831 26.6959 25.8064 25.8064 25.8064C24.9169 25.8064 24.1935 25.0831 24.1935 24.1935H22.5806C22.5806 25.9726 24.0274 27.4194 25.8064 27.4194C27.5855 27.4194 29.0322 25.9726 29.0322 24.1935C29.0322 22.4145 27.5855 20.9677 25.8064 20.9677Z" fill="white"/>
<path d="M34.854 16.129L33.8709 20.0621L32.8879 16.129H30.6451V26.6129H32.258V20.2605L33.8709 26.7121L35.4839 20.2605V26.6129H37.0968V16.129H34.854Z" fill="white"/>
<path d="M17.742 45.1613H11.2903V46.7742H17.742V45.1613Z" fill="white"/>
<path d="M25.8064 33.871H24.1935V35.4839H25.8064V33.871Z" fill="white"/>
<path d="M22.5806 33.871H20.9677V35.4839H22.5806V33.871Z" fill="white"/>
<path d="M19.3548 33.871H17.7419V35.4839H19.3548V33.871Z" fill="white"/>
<path d="M16.129 33.871H14.5161V35.4839H16.129V33.871Z" fill="white"/>
</svg>
